<?xml version="1.0" standalone="no"?>
<!DOCTYPE svg PUBLIC "-//W3C//DTD SVG 20010904//EN"
 "http://www.w3.org/TR/2001/REC-SVG-20010904/DTD/svg10.dtd">
<svg version="1.0" xmlns="http://www.w3.org/2000/svg"
 width="512.000000pt" height="512.000000pt" viewBox="0 0 512.000000 512.000000"
 preserveAspectRatio="xMidYMid meet">
<metadata>
Created by potrace 1.14, written by Peter Selinger 2001-2017
</metadata>
<g transform="translate(0.000000,512.000000) scale(0.100000,-0.100000)"
fill="#000000" stroke="none">
<path d="M2370 4608 c-370 -34 -737 -177 -1045 -406 -116 -85 -322 -291 -407
-407 -553 -745 -553 -1735 0 -2480 85 -116 291 -322 407 -407 120 -89 275
-181 394 -234 697 -306 1476 -219 2086 234 116 85 322 291 407 407 89 120 181
275 234 394 306 697 219 1476 -234 2086 -85 116 -291 322 -407 407 -418 311
-926 454 -1435 406z m910 -778 l0 -270 -180 0 c-200 0 -228 -6 -273 -59 l-27
-33 0 -194 0 -194 241 0 242 0 -6 -77 c-4 -43 -16 -160 -28 -260 l-22 -183
-216 -2 -216 -3 -3 -772 -2 -773 -315 0 -315 0 0 775 0 775 -155 0 -155 0 0
255 0 254 153 3 152 3 6 295 c6 318 8 332 66 442 79 151 239 251 445 277 35 5
186 9 336 10 l272 1 0 -270z"/>
</g>
</svg>
