<?xml version="1.0" standalone="no"?>
<!DOCTYPE svg PUBLIC "-//W3C//DTD SVG 20010904//EN"
 "http://www.w3.org/TR/2001/REC-SVG-20010904/DTD/svg10.dtd">
<svg version="1.0" xmlns="http://www.w3.org/2000/svg"
 width="512.000000pt" height="512.000000pt" viewBox="0 0 512.000000 512.000000"
 preserveAspectRatio="xMidYMid meet">
<metadata>
Created by potrace 1.14, written by Peter Selinger 2001-2017
</metadata>
<g transform="translate(0.000000,512.000000) scale(0.100000,-0.100000)"
fill="#000000" stroke="none">
<path d="M1007 4589 c-195 -47 -365 -179 -446 -344 -65 -131 -62 -43 -59
-1697 l3 -1503 32 -84 c44 -112 100 -196 187 -278 84 -79 156 -124 258 -161
l73 -27 933 -3 932 -2 0 835 0 835 -165 0 -165 0 0 280 0 280 164 0 164 0 4
308 c4 304 4 308 31 387 70 203 219 330 441 376 78 16 137 19 409 19 l317 0 0
-284 0 -285 -209 -3 c-230 -3 -235 -5 -285 -72 -20 -26 -21 -41 -21 -234 l0
-207 258 -3 259 -2 -7 -78 c-8 -89 -54 -464 -58 -468 -1 -1 -104 -5 -229 -10
l-228 -7 0 -833 0 -834 233 0 c262 0 303 6 427 67 55 27 94 56 150 112 88 89
130 158 174 278 l31 88 0 1535 0 1535 -24 79 c-63 201 -225 352 -437 406 -75
19 -116 20 -1573 19 -1440 0 -1499 -1 -1574 -20z"/>
</g>
</svg>
